<?xml version="1.0" encoding="utf-8"?>
<!-- Generator: Adobe Illustrator 26.3.1, SVG Export Plug-In . SVG Version: 6.00 Build 0)  -->
<svg version="1.1" id="图层_1" xmlns="http://www.w3.org/2000/svg" xmlns:xlink="http://www.w3.org/1999/xlink" x="0px" y="0px"
	 viewBox="0 0 493 524" style="enable-background:new 0 0 493 524;" xml:space="preserve">
<style type="text/css">
	.st0{fill:none;stroke:#969696;stroke-width:12.5;}
	.st1{font-family:'ArialMT';}
	.st2{font-size:16px;}
	.st3{fill:#FFFFB6;stroke:#E8ED4F;stroke-width:2.3;}
	.st4{font-size:24px;}
	.st5{fill:#D8FED7;stroke:#56C25C;stroke-width:2.3;}
	.st6{fill:#BBDCFF;stroke:#89B2DE;stroke-width:2.3;}
	.st7{fill:#FFDEDD;stroke:#DD8383;stroke-width:2.3;}
</style>
<path class="st0" d="M88,196v272l260-136L88,196L348,58"/>
<g>
	<g transform="translate(88,332) rotate(-90)">
		<text transform="matrix(1 0 0 1 -37.8011 -14)" class="st1 st2">Deposition</text>
		<text transform="matrix(1 0 0 1 -41.8011 26)" class="st1 st2">Sublimation</text>
		<g transform="rotate(180, -50, -20)">
			<path id="arrow" d="M-50-9h-8l-10-11l10-11h8l-10,11L-50-9z"/>
		</g>
		<g>
			<path id="arrow_00000053526202690104016390000018133591877307855765_" d="M50,9h8l10,11L58,31h-8l10-11L50,9z"/>
		</g>
	</g>
	<g transform="translate(218,400) rotate(-28)">
		<text transform="matrix(1 0 0 1 -31.125 -13.9999)" class="st1 st2">Solidification</text>
		<text transform="matrix(1 0 0 1 -25.7889 25.9998)" class="st1 st2">Melting</text>
		<g transform="rotate(180, -40, -20)">
			<path id="arrow_00000119803485488695526780000003664953102885098922_" d="M-40-9l-8,0l-10-11l10-11l8,0l-10,11L-40-9z"/>
		</g>
		<g>
			<path id="arrow_00000075848969385931290730000016441755255008049330_" d="M40,9l8,0l10,11L48,31l-8,0l10-11L40,9z"/>
		</g>
	</g>
	<g transform="translate(218,264) rotate(28)">
		<text transform="matrix(1 0 0 1 -43.8787 -14.0001)" class="st1 st2">Vaporization</text>
		<text transform="matrix(1 0 0 1 -49.3711 26)" class="st1 st2">Condensation</text>
		<g transform="rotate(180, -60, -20)">
			<path id="arrow_00000095339091640242779180000015452764265575937948_" d="M-60-9l-8,0l-10-11l10-11l8,0l-10,11L-60-9z"/>
		</g>
		<g>
			<path id="arrow_00000083784237782967532480000002246825555423448987_" d="M60,9l8,0l10,11L68,31h-8l10-11L60,9z"/>
		</g>
	</g>
	<g transform="translate(218,127) rotate(-28)">
		<text transform="matrix(1 0 0 1 -53.3631 -14.0002)" class="st1 st2">Recombination</text>
		<text transform="matrix(1 0 0 1 -34.2458 25.9997)" class="st1 st2">Ionization</text>
		<g transform="rotate(180, -65, -20)">
			<path id="arrow_00000003105126830575411850000006125874406207908257_" d="M-65-9l-8,0l-10-11l10-11l8,0l-10,11L-65-9z"/>
		</g>
		<g>
			<path id="arrow_00000129202914617835420580000002453992828759897776_" d="M45,9l8,0l10,11L53,31h-8l10-11L45,9z"/>
		</g>
	</g>
</g>
<g>
	<g>
		<path id="bubble" class="st3" d="M33.5,164.5h109c3.9,0,7,3.1,7,7v49c0,3.9-3.1,7-7,7h-109c-3.9,0-7-3.1-7-7v-49
			C26.5,167.6,29.6,164.5,33.5,164.5z"/>
	</g>
	<text transform="matrix(1 0 0 1 65.9922 204.5)" class="st1 st4">Gas</text>
	<g>
		<path id="bubble_00000054986509469086193200000016990489911074855054_" class="st5" d="M33.5,436.5h109c3.9,0,7,3.1,7,7v49
			c0,3.9-3.1,7-7,7h-109c-3.9,0-7-3.1-7-7v-49C26.5,439.6,29.6,436.5,33.5,436.5z"/>
	</g>
	<text transform="matrix(1 0 0 1 61.3164 476.5)" class="st1 st4">Solid</text>
	<g>
		<path id="bubble_00000100355493263829508040000011425379124527366838_" class="st6" d="M293.5,300.5h109c3.9,0,7,3.1,7,7v49
			c0,3.9-3.1,7-7,7h-109c-3.9,0-7-3.1-7-7v-49C286.5,303.6,289.6,300.5,293.5,300.5z"/>
	</g>
	<text transform="matrix(1 0 0 1 315.9727 340.5)" class="st1 st4">Liquid</text>
	<g>
		<path id="bubble_00000121999352142031011800000000367856988468180388_" class="st7" d="M293.5,26.5h109c3.9,0,7,3.1,7,7v49
			c0,3.9-3.1,7-7,7h-109c-3.9,0-7-3.1-7-7v-49C286.5,29.6,289.6,26.5,293.5,26.5z"/>
	</g>
	<text transform="matrix(1 0 0 1 307.9863 66.5)" class="st1 st4">Plasma</text>
</g>
<path d="M434,58c-2.3,12.9-4,30.2-10.8,45c4.7-0.6,6.8-4.6,8.6-8.5v372.2h4.4V94.5c1.8,3.9,3.9,7.9,8.6,8.4
	C438,88.1,436.3,70.8,434,58L434,58z"/>
<text transform="matrix(6.123234e-17 -1 1 6.123234e-17 463 377.5004)" class="st1 st4">Enthalpy of system</text>
</svg>
